<svg width="16" height="11" viewBox="0 0 16 11" fill="none" xmlns="http://www.w3.org/2000/svg">
<path d="M6.45 10.26C6.65 10.09 6.76 9.84 6.75 9.58C6.75 9.32 6.63 9.07 6.43 8.9L3.53 6.23H14.97C15.24 6.23 15.5 6.14 15.7 5.96C15.89 5.79 16 5.54 16 5.29C16 5.03 15.9 4.79 15.7 4.61C15.5 4.43 15.24 4.33 14.97 4.34H3.52L6.45 1.63C6.65 1.46 6.76 1.21 6.76 0.95C6.76 0.69 6.65 0.45 6.45 0.28C6.25 0.1 5.99 0 5.71 0C5.44 0 5.18 0.1 4.98 0.28L0.28 4.61C0.18 4.69 0.11 4.8 0.06 4.92C0.02 5.03 0 5.15 0 5.27C0 5.39 0.02 5.51 0.06 5.63C0.11 5.75 0.18 5.85 0.28 5.94L5 10.29C5.19 10.47 5.44 10.56 5.7 10.55C5.97 10.55 6.23 10.45 6.43 10.26H6.45Z" fill="black"/>
</svg>
